<svg width="20" height="13" viewBox="0 0 20 13" fill="none" xmlns="http://www.w3.org/2000/svg">
<path d="M8.03418 5.82361C9.1168 5.29421 9.74358 4.4707 9.74358 3.17662C9.74358 0.647271 7.92021 0 5.81194 0H0V12.7059H5.98291C8.20513 12.7059 10.3134 11.5878 10.3134 8.99965C10.2564 7.47028 9.51566 6.29418 8.03418 5.82361ZM2.67804 2.17653H5.24214C6.2108 2.17653 7.12251 2.47064 7.12251 3.64708C7.12251 4.70587 6.43874 5.17622 5.47008 5.17622H2.735V2.17653H2.67804ZM5.58401 10.588H2.67804V7.05864H5.64097C6.83756 7.05864 7.57831 7.58838 7.57831 8.88246C7.57831 10.1765 6.66663 10.588 5.58401 10.588ZM18.0057 1.94101H12.9914V0.705979H18.0057V1.94101ZM20 8.29424C20 5.58843 18.4616 3.29437 15.6695 3.29437C12.9345 3.29437 11.1111 5.41185 11.1111 8.17648C11.1111 11.0588 12.8775 13 15.6695 13C17.7778 13 19.2023 11.9996 19.829 9.88198H17.6638C17.4359 10.6467 16.4672 11.0584 15.7265 11.0584C14.302 11.0584 13.5612 10.1761 13.5612 8.70554H20C20 8.58789 20 8.41189 20 8.29424ZM13.5612 7.1764C13.6182 5.94113 14.4159 5.23538 15.6125 5.23538C16.8661 5.23538 17.4359 5.99996 17.5498 7.1764H13.5612Z" fill="black"/>
</svg>
