<svg width="13" height="16" viewBox="0 0 13 16" fill="none" xmlns="http://www.w3.org/2000/svg">
<path d="M6.7 0C2.3 0 0 2.8 0 5.9C0 7.4 0.8 8.9 2.1 9.7C2.5 9.9 2.4 9.7 2.7 8.5C2.7 8.4 2.7 8.3 2.6 8.2C0.8 6 2.3 1.7 6.5 1.7C12.6 1.7 11.4 10.1 7.6 10.1C6.8 10.2 6.1 9.6 6.1 8.8V8.4C6.5 7.3 6.8 6.3 6.9 5.2C6.9 3.1 3.8 3.4 3.8 6.2C3.8 6.7 3.9 7.2 4.1 7.6C4.1 7.6 3.1 11.7 2.9 12.4C2.7 13.6 2.8 14.8 3 15.9C2.9 16 3 16 3 16H3.1C3.8 15 4.4 14 4.8 12.9C4.9 12.4 5.4 10.6 5.4 10.6C5.9 11.3 6.8 11.7 7.7 11.7C10.8 11.7 13 9 13 5.7C13 2.4 10.2 0 6.7 0Z" fill="black"/>
</svg>
