<svg width="17" height="15" viewBox="0 0 17 15" fill="none" xmlns="http://www.w3.org/2000/svg">
<path d="M15.2433 3.73807C15.2433 3.91091 15.2433 4.02602 15.2433 4.19886C15.2433 8.86557 11.73 14.2812 5.32668 14.2812C3.34335 14.2812 1.53 13.7052 0 12.6682C0.283333 12.7258 0.566667 12.7261 0.85 12.7261C2.49333 12.7261 3.96665 12.1497 5.15665 11.2278C3.62665 11.1702 2.32335 10.1909 1.92668 8.75057C2.15335 8.80818 2.37999 8.80795 2.60665 8.80795C2.94665 8.80795 3.22997 8.75079 3.51331 8.69318C1.92664 8.3475 0.736694 6.96477 0.736694 5.23636V5.17841C1.19003 5.46648 1.75665 5.58159 2.32332 5.6392C1.35999 5.00546 0.793347 3.91102 0.793347 2.70113C0.793347 2.06738 0.963306 1.43386 1.24664 0.915338C2.94664 3.04704 5.55335 4.48704 8.44335 4.60227C8.38668 4.3142 8.32997 4.08409 8.32997 3.79602C8.32997 1.83716 9.86003 0.28125 11.7867 0.28125C12.8067 0.28125 13.7134 0.68477 14.3367 1.37613C15.13 1.20329 15.8666 0.915225 16.5466 0.51193C16.2633 1.31852 15.7533 2.00955 15.0167 2.47046C15.6967 2.41284 16.3767 2.18239 17 1.89432C16.5467 2.58568 15.9233 3.21955 15.2433 3.73807Z" fill="black"/>
</svg>
