<svg width="21" height="16" viewBox="0 0 21 16" fill="none" xmlns="http://www.w3.org/2000/svg">
<path d="M20.5555 2.41631C20.3333 1.51741 19.6111 0.787378 18.7222 0.506471C17.0556 0.0570192 10.5 0.0571289 10.5 0.0571289C10.5 0.0571289 3.94449 0.0570192 2.27783 0.506471C1.38894 0.731196 0.666693 1.46123 0.444471 2.41631C2.71201e-05 4.10175 0 7.58511 0 7.58511C0 7.58511 2.71201e-05 11.0685 0.444471 12.7539C0.666693 13.6528 1.38894 14.3831 2.27783 14.6078C3.94449 15.0572 10.5 15.0571 10.5 15.0571C10.5 15.0571 17.0556 15.0572 18.7222 14.6078C19.6111 14.3831 20.3333 13.6528 20.5555 12.7539C21 11.0685 21 7.58511 21 7.58511C21 7.58511 21 4.10175 20.5555 2.41631ZM8.33332 10.7316V4.38266L13.8333 7.52915L8.33332 10.7316Z" fill="black"/>
</svg>
